<svg xmlns="http://www.w3.org/2000/svg" width="1017.813" height="744.856" viewBox="0 0 1017.813 744.856">
  <g id="Group_4" data-name="Group 4" transform="translate(-47.582 -51.781)">
    <path id="Path_1" data-name="Path 1" d="M53.113,767.838l3.6-5.566,6.545-1.636,6.873-9.163L78.64,744.6,90.1,741,95,728.89l2.292-8.509,8.073-3.053,5.127-.656,5.674-3.817,2.836-1.092s6.763-18.71,11.183-22.31,13.09-13.583,13.09-13.583l6.873-4.91,6.056-6.381,3.6-6.545,5.563-5.727s3.928-5.345,9.163-7.309,12.329-4.474,12.329-4.474,17.946-14.89,22.528-18.818,27.983-26.676,28.965-38.456,3.274-43.2,18-57.277,20.62-53.893,37.42-66.983,16.257-37.092,25.255-43.148,12.493-16.418,12.055-19.038,3.71-4.91,10.693-6.109,20.836-12.983,18.872-17.128,7.966-25.637,31.693-23.017,96.276-22.474,106.313-35.785,90.952-50.947,106.3-52.257,25.163,5.566,44.8-10.8,22.91-45.822,33.057-50.4,13.09-.654,16.364-10.8-9.491,3.6,4.91-20.618S746.961,96.9,759.725,91.335s34.857-25.363,47.947-21.6" transform="translate(0 23.268)" fill="none" stroke="#96999c" stroke-linecap="round" stroke-linejoin="bevel" stroke-width="8" stroke-dasharray="2 12"/>
    <path id="Path_2" data-name="Path 2" d="M352.177,89.511s13.526-7.855,21.382-7.855,34.039,5.6,44.948,10.875,10.691,9.635,10.691,9.635l32.511-19.2,16.364-.218s10.037,7.637,15.711.872,3.271-13.091,9.816-20.292,3.71-11.563,14.183-5.017S524.11,65.948,528.476,69s24.873,3.71,28.583.982,16.908-7.091,16.908-7.091l21.166-8.509" transform="translate(467.661 0)" fill="none" stroke="#6d6f72" stroke-linecap="round" stroke-linejoin="round" stroke-width="4" stroke-dasharray="1 6"/>
  </g>
</svg>
