<svg xmlns="http://www.w3.org/2000/svg" xmlns:xlink="http://www.w3.org/1999/xlink" width="198.785" height="12.269" viewBox="0 0 198.785 12.269">
  <defs>
    <clipPath id="clip-path">
      <rect width="2" height="55.878" fill="none"/>
    </clipPath>
  </defs>
  <g id="Group_5" data-name="Group 5" transform="translate(32.503 12.269) rotate(-90)">
    <ellipse id="Ellipse_7" data-name="Ellipse 7" cx="6.135" cy="6.135" rx="6.135" ry="6.135" transform="translate(0 154.013)" fill="#fff"/>
    <ellipse id="Ellipse_8" data-name="Ellipse 8" cx="4.861" cy="4.861" rx="4.861" ry="4.861" transform="translate(1.274 138.392)" fill="#fff"/>
    <ellipse id="Ellipse_9" data-name="Ellipse 9" cx="4.534" cy="4.534" rx="4.534" ry="4.534" transform="translate(1.601 124.137)" fill="#fff"/>
    <ellipse id="Ellipse_10" data-name="Ellipse 10" cx="4.299" cy="4.299" rx="4.299" ry="4.299" transform="translate(1.835 110.477)" fill="#fff"/>
    <ellipse id="Ellipse_11" data-name="Ellipse 11" cx="3.868" cy="3.868" rx="3.868" ry="3.868" transform="translate(2.267 97.575)" fill="#fff"/>
    <ellipse id="Ellipse_12" data-name="Ellipse 12" cx="3.518" cy="3.518" rx="3.518" ry="3.518" transform="translate(2.617 85.023)" fill="#fff"/>
    <ellipse id="Ellipse_13" data-name="Ellipse 13" cx="2.799" cy="2.799" rx="2.799" ry="2.799" transform="translate(3.335 73.19)" fill="#fff"/>
    <ellipse id="Ellipse_14" data-name="Ellipse 14" cx="2.045" cy="2.045" rx="2.045" ry="2.045" transform="translate(4.09 62.111)" fill="#fff"/>
    <ellipse id="Ellipse_15" data-name="Ellipse 15" cx="1.341" cy="1.341" rx="1.341" ry="1.341" transform="translate(4.794 51.736)" fill="#fff"/>
    <ellipse id="Ellipse_16" data-name="Ellipse 16" cx="1.14" cy="1.14" rx="1.14" ry="1.14" transform="translate(4.995 41.563)" fill="#fff"/>
    <ellipse id="Ellipse_17" data-name="Ellipse 17" cx="0.763" cy="0.763" rx="0.763" ry="0.763" transform="translate(5.372 33.66)" fill="#fff"/>
    <ellipse id="Ellipse_18" data-name="Ellipse 18" cx="0.439" cy="0.439" rx="0.439" ry="0.439" transform="translate(5.696 27.497)" fill="#fff"/>
    <g id="Repeat_Grid_3" data-name="Repeat Grid 3" transform="translate(5.696 -32.503)" clip-path="url(#clip-path)">
      <g transform="translate(-5.696 -22.497)">
        <ellipse id="Ellipse_29" data-name="Ellipse 29" cx="0.439" cy="0.439" rx="0.439" ry="0.439" transform="translate(5.696 22.497)" fill="#fff"/>
      </g>
      <g transform="translate(-5.696 -17.497)">
        <ellipse id="Ellipse_29-2" data-name="Ellipse 29" cx="0.439" cy="0.439" rx="0.439" ry="0.439" transform="translate(5.696 22.497)" fill="#fff"/>
      </g>
      <g transform="translate(-5.696 -12.497)">
        <ellipse id="Ellipse_29-3" data-name="Ellipse 29" cx="0.439" cy="0.439" rx="0.439" ry="0.439" transform="translate(5.696 22.497)" fill="#fff"/>
      </g>
      <g transform="translate(-5.696 -7.497)">
        <ellipse id="Ellipse_29-4" data-name="Ellipse 29" cx="0.439" cy="0.439" rx="0.439" ry="0.439" transform="translate(5.696 22.497)" fill="#fff"/>
      </g>
      <g transform="translate(-5.696 -2.497)">
        <ellipse id="Ellipse_29-5" data-name="Ellipse 29" cx="0.439" cy="0.439" rx="0.439" ry="0.439" transform="translate(5.696 22.497)" fill="#fff"/>
      </g>
      <g transform="translate(-5.696 2.503)">
        <ellipse id="Ellipse_29-6" data-name="Ellipse 29" cx="0.439" cy="0.439" rx="0.439" ry="0.439" transform="translate(5.696 22.497)" fill="#fff"/>
      </g>
      <g transform="translate(-5.696 7.503)">
        <ellipse id="Ellipse_29-7" data-name="Ellipse 29" cx="0.439" cy="0.439" rx="0.439" ry="0.439" transform="translate(5.696 22.497)" fill="#fff"/>
      </g>
      <g transform="translate(-5.696 12.503)">
        <ellipse id="Ellipse_29-8" data-name="Ellipse 29" cx="0.439" cy="0.439" rx="0.439" ry="0.439" transform="translate(5.696 22.497)" fill="#fff"/>
      </g>
      <g transform="translate(-5.696 17.503)">
        <ellipse id="Ellipse_29-9" data-name="Ellipse 29" cx="0.439" cy="0.439" rx="0.439" ry="0.439" transform="translate(5.696 22.497)" fill="#fff"/>
      </g>
      <g transform="translate(-5.696 22.503)">
        <ellipse id="Ellipse_29-10" data-name="Ellipse 29" cx="0.439" cy="0.439" rx="0.439" ry="0.439" transform="translate(5.696 22.497)" fill="#fff"/>
      </g>
      <g transform="translate(-5.696 27.503)">
        <ellipse id="Ellipse_29-11" data-name="Ellipse 29" cx="0.439" cy="0.439" rx="0.439" ry="0.439" transform="translate(5.696 22.497)" fill="#fff"/>
      </g>
      <g transform="translate(-5.696 32.503)">
        <ellipse id="Ellipse_29-12" data-name="Ellipse 29" cx="0.439" cy="0.439" rx="0.439" ry="0.439" transform="translate(5.696 22.497)" fill="#fff"/>
      </g>
    </g>
  </g>
</svg>
