<svg xmlns="http://www.w3.org/2000/svg" xmlns:xlink="http://www.w3.org/1999/xlink" width="1920" height="1080" viewBox="0 0 1920 1080">
  <defs>
    <clipPath id="clip-page1">
      <rect width="1920" height="1080"/>
    </clipPath>
  </defs>
  <g id="page1" clip-path="url(#clip-page1)">
    <rect width="1920" height="1080" fill="#fff"/>
    <rect id="Rectangle_23" data-name="Rectangle 23" width="1963" height="1080" transform="translate(-23)" fill="#3c3c3c"/>
    <text id="_The_overnight_nationwide_lockdown_announced_by_prime_minister_Narendra_Modi_on_March_24_forced_over_10_million_migrant_labourers_to_return_to_their_home_states._Without_proper_infrastructure_and_government_facilities_the_migrant_works_remained_stranded_an" data-name="&quot;The overnight nationwide lockdown announced by prime minister Narendra Modi on March 24 forced over 10 million migrant labourers to return to their home states. Without proper infrastructure and government facilities the migrant works remained stranded an" transform="translate(278 681.582)" fill="#fff" font-size="33" font-family="SegoeUI, Segoe UI"><tspan x="0" y="36">&quot;The overnight nationwide lockdown announced by prime minister Narendra Modi on </tspan><tspan y="36" font-family="SegoeUI-Bold, Segoe UI" font-weight="700">March </tspan><tspan x="0" y="90" font-family="SegoeUI-Bold, Segoe UI" font-weight="700">24</tspan><tspan y="90" xml:space="preserve"> forced over </tspan><tspan y="90" font-family="SegoeUI-Bold, Segoe UI" font-weight="700">10 million migrant labourers</tspan><tspan y="90" xml:space="preserve"> to </tspan><tspan y="90" font-family="SegoeUI-Bold, Segoe UI" font-weight="700">return </tspan><tspan y="90">to their </tspan><tspan y="90" font-family="SegoeUI-Bold, Segoe UI" font-weight="700">home states. </tspan><tspan y="90">Without </tspan><tspan x="0" y="144">proper </tspan><tspan y="144" font-family="SegoeUI-Bold, Segoe UI" font-weight="700">infrastructure </tspan><tspan y="144">and </tspan><tspan y="144" font-family="SegoeUI-Bold, Segoe UI" font-weight="700">government facilities </tspan><tspan y="144">the migrant works remained </tspan><tspan y="144" font-family="SegoeUI-Bold, Segoe UI" font-weight="700">stranded </tspan><tspan y="144">and </tspan><tspan x="0" y="198" font-family="SegoeUI-Bold, Segoe UI" font-weight="700">helpless</tspan><tspan y="198">, until for some it was </tspan><tspan y="198" font-family="SegoeUI-Bold, Segoe UI" font-weight="700">too late</tspan><tspan y="198" xml:space="preserve"> to take an </tspan><tspan y="198" font-family="SegoeUI-Bold, Segoe UI" font-weight="700">action</tspan><tspan y="198">.&quot;</tspan></text>
    <text id="India_a_country_of_more_than_1.3_billion_people_is_among_the_worst_affected_by_the_pandemic._Nearly_139_million_people_belong_to_the_section_of_migrants_accorsing_to_Census_2011_which_constitutes_nearly_80_of_our_working_class_of_the_socirty" data-name="India, a country of more than 1.3 billion people, is among the worst affected by the pandemic. Nearly 139 million people belong to the section of migrants accorsing to Census 2011 which constitutes nearly 80% of our working class of the socirty" transform="translate(278 487.582)" fill="#fff" font-size="33" font-family="SegoeUI, Segoe UI"><tspan x="0" y="36">India, a country of more than </tspan><tspan y="36" font-family="SegoeUI-Bold, Segoe UI" font-weight="700">1.3 billion people</tspan><tspan y="36">, is among the worst affected by the </tspan><tspan x="0" y="90">pandemic. Nearly </tspan><tspan y="90" font-family="SegoeUI-Bold, Segoe UI" font-weight="700">139 million</tspan><tspan y="90" xml:space="preserve"> people belong to the section of migrants accorsing to Census </tspan><tspan x="0" y="144">2011 which constitutes nearly </tspan><tspan y="144" font-family="SegoeUI-Bold, Segoe UI" font-weight="700">80%</tspan><tspan y="144" xml:space="preserve"> of our working class of the socirty</tspan></text>
    <text id="Source_-_Quartz_India" data-name="Source - Quartz India" transform="translate(278 910.582)" fill="#fff" font-size="21" font-family="SegoeUI-Italic, Segoe UI" font-style="italic"><tspan x="0" y="23">Source - Quartz India</tspan></text>
    <g id="Group_181" data-name="Group 181" transform="translate(278 127.175)">
      <path id="Path_786" data-name="Path 786" d="M1032.39-1579.341c-.229-2.125-1.461-3.061-3.745-3.99-3.6-1.464-6.769-4.044-9.979-6.351a3.392,3.392,0,0,1-1.245-2.8c.491-1.965-.641-3.1-1.627-4.259,1.384-2.463,1.5-2.536.04-4.907a10.038,10.038,0,0,1-1.431-8.177,32.577,32.577,0,0,0,.438-12.831,14.873,14.873,0,0,1,.342-6.231,87.156,87.156,0,0,1,4.08-10.813,10.53,10.53,0,0,0,.661-7.363c-.518-1.982-1.079-4.369-.448-6.162,1.7-4.85,1.62-9.77,1.647-14.737.01-2.118-.418-4.4,1.916-5.76.156-.09.189-.388.285-.588,1.328-2.789,2.686-5.561,3.984-8.363,1.029-2.224.913-3.031-1.265-3.944a3.125,3.125,0,0,1-2.145-3.592c.176-2.3.408-4.6.558-6.9.282-4.293.408-8.6.8-12.884.654-7.154,1.444-14.292.664-21.493-.089-.837-.146-2.029.332-2.513,1.3-1.315.9-2.825.84-4.366,1.039-.571,2.035-1.039,2.941-1.643.724-.481,1.7-1.009,1.942-1.726,1.085-3.18,2.248-6.471,2.048-9.817a6.7,6.7,0,0,1,2.457-5.956,4.554,4.554,0,0,0,1.713-4.665c-.93-4.452-.83-4.472-5.518-4.027-4.047.388-4.508.986-4.12,4.857.369,3.655.11,7.161-3.313,9.5a18.962,18.962,0,0,1-2.357,1.2c-3.818-8.343-7.46-16.3-11.178-24.434.993-2.088,2.151-4.1,5.023-4.439,2.151-.259,4.263-.83,6.4-1.222a2.191,2.191,0,0,0,1.979-2.57,10.059,10.059,0,0,1,1.716-5.63c.627-1.036-.362-2.291,1.023-3.26,1.9-1.328,2.029-2.56.246-3.934-2.536-1.952-3.247-4.711-3.921-7.423-.614-2.477-2.427-4.731-1.577-7.6.119-.4-1.155-1.477-1.962-1.846a17.548,17.548,0,0,0-4.1-1.218c-6.228-1.129-12.131-.8-16.921,4.093-.372.379-.867.96-1.265.93-3.253-.242-3.662,1.872-4.09,4.355a4.433,4.433,0,0,0,.279,3.1,2.234,2.234,0,0,1,.136,1.839,2.349,2.349,0,0,0-.02,2.38c.886,2.616,1.537,5.315,2.234,7.991.617,2.367-.169,5.03-2.009,5.325-2.211.359-3.214,1.428-3.416,3.287-1.753.461-3.243,1.192-4.734,1.189-4.508-.01-9.017-.392-13.525-.452a25.95,25.95,0,0,1-7.45-1.295,45.08,45.08,0,0,0-6.729-1.368c-3.549-.521-6.374,1.411-9.186,3.081a30.48,30.48,0,0,1-11.1,4.107c-1.169.179-2.337.368-2.915.461-1.481,4.478-2.922,8.383-4.034,12.376a31.439,31.439,0,0,0-1.076,7.164,46.437,46.437,0,0,0,2.633,18.578c1.258,3.3,1.477,6.666-.309,9.926-.086.153.043.422.1.853,1.926,1.205,2.533,3.1,2.556,5.511a31.723,31.723,0,0,0,1.152,6.766c.452,1.922,1.414,3.745,1.7,5.68a37.746,37.746,0,0,0,5.843,14.664,14.122,14.122,0,0,0,2.782,3.25,3.781,3.781,0,0,0,2.659.9c4.883-.767,9.721-1.809,14.6-2.586,3.234-.518,6.514-.744,10.1-1.135-.946,3.612-.661,6.537,2.291,8.642-8.562,12.576-10,26.7-10.866,41.312,1.344.223,2.563.422,4.047.667.963-8.559,2.732-16.659,2.706-24.982a19.8,19.8,0,0,1,.631-5.89c.976-3.1,2.4-6.069,3.439-8.625l3.612-.963a8.484,8.484,0,0,1,4.452,5.85,18.833,18.833,0,0,0,2.327,5.813,58.877,58.877,0,0,1,8.359,15.676c1.271,3.884,1,7.118-1.461,9.993-3.582,4.2-7.161,8.519-11.384,12.011a50.8,50.8,0,0,0-13.289,16.267,6.827,6.827,0,0,1-3.078,2.789,16.519,16.519,0,0,0-6.275,4.734,3.87,3.87,0,0,1-3.692,1.736,10.467,10.467,0,0,0-2.267.305,21.838,21.838,0,0,0,.4,3.605,11.484,11.484,0,0,0,4.88,6.487,13.589,13.589,0,0,1,5.574,6.789,9.831,9.831,0,0,0,2.1,3.343c2.769,2.911,5.674,5.693,8.535,8.539H933.625c-.342-1.819-1.64-2.7-3.343-3.184a5.041,5.041,0,0,1-2.085-.943c-.475-.451-1.009-1.51-.793-1.906,1.461-2.672.677-5.415.382-8.1-.591-5.338-1.388-10.653-2.091-15.982-.056-.435-.067-.88-.08-1.321-.139-4.727-.856-9.472.561-14.146a8.341,8.341,0,0,0,.129-2.311c.017-2.434.159-4.854-2.005-6.716-.518-.445-.322-1.653-.627-2.44-.438-1.132-1.036-2.2-1.753-3.682,1.023-4.01-.289-8.193-1.843-12.343,3.081-.969,4-3.738,4.538-6.318a6.3,6.3,0,0,0-3.307-7.2c-3.456-2.028-6.7-.873-7.31,3.1-.319,2.045-.309,4.14-.448,6.215-3.1.969-5.249,2.995-7.357,5.113a6.528,6.528,0,0,0-2.015,5.71c.305,2.3.83,4.562,1.172,6.856.518,3.519.966,7.151-.442,10.481a22.462,22.462,0,0,0-1.335,11.676,23.554,23.554,0,0,1-2.191,12.532c-2.407,5.4-4.093,11.128-6.035,16.735-.425,1.219-.621,2.516-.936,3.834-4.362-.641-9.2,1.614-12.39-3.214,1.418-2.3.89-4.638.226-7.022-.531-1.909-.833-3.881-1.3-5.81a8.33,8.33,0,0,1,2.261-7.921c3.761-4.2,7.38-8.539,11.3-12.582a5.642,5.642,0,0,0,1.431-6.278q-1.748-5.528-3.393-11.085c-.3-1.029-.793-2.248-.5-3.157.651-2.042-.116-3.639-1.036-5.438a13.53,13.53,0,0,0,2.257-8.731c-.342-5.737-.979-11.453-1.232-17.19-.166-3.8-1.7-6.975-3.4-10.238a74.722,74.722,0,0,1-4.6-10.587,29.767,29.767,0,0,0-2.875-6.985,6.332,6.332,0,0,1,1.192-8.044c1.414-1.119,1.69-2.175.833-3.675a4.165,4.165,0,0,1-.6-1.54,11.35,11.35,0,0,0-5.066-8.837c.246-.657.455-1.208.77-2.052-1.577-.345-3.127-1.222-4.047-.78a39.742,39.742,0,0,0-7.519,4.724c-1.779,1.414-.813,3.784-.92,5.687-.2,3.612,2.247,6.035,4.93,8.545-1.106,1.75-2.052,3.476-3.21,5.05-4.714,6.384-6.115,13.528-5.368,21.32.475,4.94.691,9.92.737,14.883.053,5.743-.219,11.49-.322,17.237-.02.966.106,1.932.163,2.868,2.155.355,4.08.677,6.431,1.066.252,3.881.787,7.606.667,11.311-.222,6.952-.94,13.89-1.212,20.842-.09,2.337-.491,4.332-2.211,5.949a31.69,31.69,0,0,1-2.689,2.4c-1.56,1.175-3.2,2.247-5.089,3.562,1.175,2,1.836,4.319,3.373,5.445,2.125,1.557,2.965,3.728,4.123,5.75,1.026,1.793,2.112,3.26,4.2,3.3v5.468H850.117c2.487-1.617,5.06-3.081,7.363-4.89.973-.764,2.865-1.829,1.866-3.409-1.159-1.836-2.812-.418-4.027.325-2.271,1.388-4.538.72-6.746.149-1.079-.282-2.145-1.056-1.55-2.706a2.961,2.961,0,0,0-.382-2.168c-2.49-4.3-5-8.582-7.636-12.788-1.222-1.952-3.011-3.6-2.43-6.248.08-.359-.269-.81-.418-1.222-.886-2.46-1.663-4.95-3.433-7.008a3.636,3.636,0,0,1-.754-2.477c.282-2.779-1.2-5.189-1.434-7.914-.292-3.413-1.783-6.769-3.067-10.029a11.008,11.008,0,0,1-.926-4.425c.159-9.16.219-18.322-2.935-27.133-.575-1.607-.422-3.161,1.026-4.163a24.3,24.3,0,0,1,3.927-1.789c.468-1.036-.966-2.925.857-4.126.212-.143-.066-1.016-.1-1.551a16.864,16.864,0,0,1-.126-2.483c.335-3.761-2.892-7.074-7.031-7.154a6.2,6.2,0,0,0-6.211,6.67,22.225,22.225,0,0,0,.89,4.2c.747,2.719.521,3.346-1.554,5.086a5.136,5.136,0,0,1-5.229,1.132c-1.348-.451-2.606-1.182-3.957-1.623-1.756-.571-3.6-1.477-5.342-1.348a86.492,86.492,0,0,0-9.76,1.77,16.494,16.494,0,0,1-1.537,3.014,16.074,16.074,0,0,0-3.247,11.224c.289,4.034-.893,7.9-.661,11.9.252,4.286-.12,8.625,1.391,12.765.936,2.56,1.321,2.809,4.083,2.942,3.283.159,6.563.345,9.744.511.133,1.829.232,3.227.352,4.9-4.628,4.422-6.739,10.454-8.652,16.609-.458,1.48.023,2.015,1.77,1.995,1.185-3.519,2.573-7.008,3.492-10.62a20.757,20.757,0,0,1,2.8-5.909,2.044,2.044,0,0,1,2.815-.933c0,.906-.026,1.786.01,2.662a16.838,16.838,0,0,0,.229,2.961,10.731,10.731,0,0,1-1.892,8.628,59.8,59.8,0,0,0-5.471,9.01c-1.7,3.7-3.735,7.247-5.567,10.889a17.282,17.282,0,0,0-1.477,3.668c-.687,2.9-1.255,5.83-1.746,8.768a8.657,8.657,0,0,0,.312,2.473H771.52c1.208-1.411.528-2.414-.315-3.36-1.238-1.388-2.291-2.845-1.892-4.7-1.275-.571-2.314-1.036-3.483-1.56,1.5-3.761.926-7.264.827-10.789-.2-6.982-.06-13.973-.06-20.879,2.314.608,4.555,1.172,6.783,1.789,1.248.345,2.55.478,3.313-.684.813-1.238-.186-2.291-.883-3.273-.515-.717-1.152-1.354-1.623-2.095-.5-.8-.88-1.68-1.434-2.759,1.162-.73,2.045-1.348,2.988-1.866,2.918-1.6,3.021-1.9,1.832-4.887q-3.063-7.694-6.059-15.414c-.342-.88-.581-1.8-.983-3.071,1.746.448,3.094.8,4.406,1.135.08.777.146,1.4.232,2.254a6.629,6.629,0,0,0,2.294-.193c3.383-1.687,4-8.19,1-10.531-2.775-2.171-5.65-4.213-8.449-6.354-1.657-1.268-3.244-2.619-4.515-3.655,1.6-13.837-5.893-20.965-17.5-25.669,1.7-.1,3.024-.08,4.306-.282,2.513-.4,3.044-1.036,3.629-3.546.684-2.941,1.444-5.866,2.238-9.05-2.712-1.521-2.563-3.931-1.975-6.736a8.676,8.676,0,0,0-1.089-7.028,14.992,14.992,0,0,0-10.341-6.55,39.1,39.1,0,0,0-8.588-.1c-6.281.545-10.255,4.253-11.5,10.371-.106.528-.216,1.059-.322,1.587a63.01,63.01,0,0,1-2.271-8.233c-2.6-11.181-5.305-22.339-7.778-33.547-.959-4.356-2.088-8.5-4.761-12.211-2.516-3.489-3.366-7.622-3.559-11.9a39.566,39.566,0,0,0-.667-6.238c-1.1-5.292-1.165-5.279,3.675-7.971,3.29-1.833,3.868-2.752,2.258-6.075-2.643-5.451-5.551-10.793-8.658-16-.88-1.477-2.765-2.433-4.332-3.406a42.185,42.185,0,0,0-4.545-2.151,16.654,16.654,0,0,1,2.988-.013c1.238-.093,2.785-.584,2.407-2.092-.627-2.52.282-4.684.8-6.995.465-2.065.853-4.05,3.018-5.1,1.484-.717,1.361-1.839.548-3.014a5.767,5.767,0,0,0-1.042-1.281c-2.032-1.6-2.2-3.586-1.6-5.949.916-3.619.966-7.211-1.019-10.6a6.663,6.663,0,0,1-.681-2.194c-1.092-6.162-2.935-7.964-9.219-8.947a25.8,25.8,0,0,1-5.142-.876,12.457,12.457,0,0,0-13.655,2.868,13.31,13.31,0,0,1-3.29,2.666c-2.118,1.062-3.234,2.324-2.9,4.913.209,1.617.2,3.632-2.291,4.4-1.716-2.961-3.987-5.312-7.679-6.072.159.88.266,1.467.415,2.3-2.314.362-4.651-.173-6.819.863.93.847,1.67,1.517,2.56,2.327-1.726,1.252-3.692,1.859-3.147,4.472,1.325.07,2.686.136,4.542.232-1.129,1.879-2.065,3.433-3.127,5.2l4.432,2.848c-.139.637-.259,1.059-.322,1.487-.379,2.473.02,3.064,2.556,2.785a50.717,50.717,0,0,0,6.334-1.55c.418,2.413.87,5.049,1.414,8.22.05.03.684.428,1.142.717.694,2.5-.634,3.771-2.54,4.654-3,1.388-6.029,2.726-9.037,4.1-4.14,1.9-8.114,4.04-11.244,7.46a12.454,12.454,0,0,0-3.34,7.39c-1,9.661-2.111,19.312-3.2,28.962a67.383,67.383,0,0,0-.923,7.891,37.444,37.444,0,0,0,1.042,8.482c.578,2.4,2.241,3.081,4.618,2.49.929-.233,1.829-.578,3.024-.959a27.134,27.134,0,0,0,3.144,11.985,5.844,5.844,0,0,1-.093,5.724c-1.521,2.782-1.358,5.763-.621,8.718.428,1.713,1.059,3.373,1.584,5.063a8.04,8.04,0,0,1-1.049,7.566,20.858,20.858,0,0,0-1.627,2.875c-.126.246-.02.607-.02,1.029.976.189,1.906.372,3.011.588a32.667,32.667,0,0,1,.508,4.024c.02,8.084,2.115,15.746,4.854,23.236,2.7,7.383,5.179,14.8,6.391,22.595a10.632,10.632,0,0,0,1.308,4.05,5.623,5.623,0,0,1,.578,4.757,30.061,30.061,0,0,1-1.746,4.638c-2.457,5.428-5.109,10.776-7.406,16.274a36.848,36.848,0,0,0-1.919,7.662c-.724,4.014-1.242,8.067-1.849,12.1a51.1,51.1,0,0,0-.853,5.886c-.093,2.878-.2,5.574-1.849,8.21-1.042,1.67-1.039,4.007-1.444,6.055-.149.75.116,1.657-.209,2.287-1.819,3.539-1.726,7.5-2.676,11.221-.631,2.48-1.152,4.764.817,6.779h-9.13c-10.394,0-20.789.02-31.187-.03-1.036,0-2.55-.073-3.011-.714-1.155-1.594-2.6-1.833-4.306-1.936a2.376,2.376,0,0,1-2.453-2.277c8.7-7.49,13.641-17.346,17.379-28.083,4.412,4.495,7.251,9.438,7.788,14.3a28.19,28.19,0,0,0,3.854,11.171,6.209,6.209,0,0,1,.876,4.09c-.359,2.879.1,3.582,2.862,3.307a56.68,56.68,0,0,0,9.362-1.819c1.57-.432,2.948-1.577,4.412-2.4-.727-1.66-1.892-1.537-2.961-1.6-3.363-.2-4.422-1.092-5.1-4.3-.086-.418-.11-.956-.379-1.218-3.114-3.061-3.672-7.221-4.731-11.125-.617-2.267-.495-4.754-1.232-6.965-2.164-6.51-4.6-12.931-6.716-18.81l2.57-11.56a61.77,61.77,0,0,0,7.244,2.464,9.82,9.82,0,0,1,6.182,4.482c.369.531.734,1.062,1.079,1.56,2.52-.886,2.52-.886,3.864-3.678-.614-1.71-1.461-3.383-3.416-3.682-2.553-.388-4.412-1.922-6.431-3.25a63.7,63.7,0,0,0-6.168-3.854,7.452,7.452,0,0,1-4.014-4.183c-1.584-4.522-3.014-9.1-4.631-14.036,4.777-.129,3.655-4.628,5.727-6.606a22.268,22.268,0,0,0-1.059-3.888c-.641-1.348-1.365-2.951-2.53-3.688-1.925-1.218-4.236-.773-6.451-.292-1.733.375-2.155,1.7-2.742,3a3.22,3.22,0,0,1-.737,1.092c-1.2,1.079-1.109,2.161-.412,3.542,1.4,2.772,1.424,3.134-.863,5.129-3.834,3.34-5.129,7.539-5.03,12.436a11.317,11.317,0,0,1-.69,4.532,43.118,43.118,0,0,1-4.077,7.931c-1.945,2.805-1.909,5.773-1.763,8.87.106,2.221,2.45,3.944,1.441,6.431-.05.13.139.435.3.554,1.945,1.461,1.275,3.283.7,5.079a34.741,34.741,0,0,0-1.511,4.718c-.183,1.1-.133,2.682.524,3.39,1.554,1.673.87,2.915-.05,4.415-1.959,3.2-3.8,6.464-5.753,9.667-1.2,1.969-2.49,3.888-3.781,5.8a61.518,61.518,0,0,0-3.668,5.381c-1.2,2.261-.654,3.629,1.494,5.043.607.4,1.255.734,1.882,1.1a42.923,42.923,0,0,1-8.6.455c-.564-.016-1.474-.452-1.6-.88-.7-2.3-2.556-3.087-4.458-4.06a21.044,21.044,0,0,1-3.576-2.948c2.467-2.858.588-4.731-1.524-6.6,2.4-2.161,1.839-4.734,1.461-7.241-.428-2.839-.923-5.67-1.464-8.489a7.972,7.972,0,0,1,2.3-7.563c1.544-1.574,2.882-3.343,4.326-5.01a54.457,54.457,0,0,1,5.139-5.776c2.214-1.919,2.782-4.595,3.051-6.982.641-5.644-1.056-11.37.116-17.067a3.33,3.33,0,0,0-.066-.986c-.617-5.531-1.238-11.065-1.836-16.423,2.832-.9,5.614-1.773,8.718-2.752-2.463-10.023-6.524-19.185-7.636-29.171,2.662-1.179,4.957-2.819,5.79-5.372,1.325-4.054,5.617-5.836,6.915-9.79,2.752-.657,1.925-3.111,2.749-5.182a16.23,16.23,0,0,1-3.184-.046,21.128,21.128,0,0,1-2.543-1.152c-1.265-.465-3.5.465-3.234,1.355.624,2.068-1.354,3.021-1.527,4.714a25.671,25.671,0,0,1-2.523-9.462c-.4-6.251-.727-12.5-3.243-18.455a4.49,4.49,0,0,0-2.911-2.669c-3.131-1.3-6.288-2.54-9.847-3.97.558-1.633.757-3.227,1.567-4.4,1.6-2.314,2-5,2.855-7.543.524-1.55,1.421-3.376,1.022-4.751a7.046,7.046,0,0,1,1.411-6.829,11.612,11.612,0,0,0-4.123-6.185,21.9,21.9,0,0,0-10.384-3.791,4.162,4.162,0,0,0-1.77.382c-2.915,1.1-4.678,3.506-6.235,5.976a5.73,5.73,0,0,0-.455,3.476c.206,1.723.807,3.393,1.159,5.106.1.5.123,1.348-.159,1.54-1.716,1.172-1.311,2.626-.677,4.1.611,1.424.478,3.419,2.772,3.652.345.033.734.724.91,1.182,1.381,3.605-.355,6.66-4.133,7.363a12.6,12.6,0,0,0-7.646,4.638,10.439,10.439,0,0,1-2.1,2.287c-3.582,2.5-6.108,5.63-6.318,10.312a16.634,16.634,0,0,1-1.4,5.05,13.779,13.779,0,0,0-.863,7.138,12.175,12.175,0,0,1,.013,2.888c-.239,2.6-.634,5.182-.8,7.782-.1,1.481-.392,3.353.342,4.389,1.185,1.68.651,3.111.408,4.688-1.162,7.576-1.806,15.135.325,22.678a8.989,8.989,0,0,1,.12,3.612c-.495,3.486-1.135,6.948-1.716,10.421-.541,3.234,2.57,7.227,5.72,6.62,2.294-.441,3.917.163,5.929,1.577v-5.441c2.194,2.58,4.681,4.923,4.661,8.323a43.185,43.185,0,0,0,3.745,17.031,8.8,8.8,0,0,1,.345,5.484,16.925,16.925,0,0,0-.12,5.508c.578,4.827.95,9.5-3.629,12.865a13.9,13.9,0,0,0-1.461,1.783,5.324,5.324,0,0,1-4.588,2.072c-3.406-.352-5.222,1.441-4.731,4.817a45.665,45.665,0,0,0,1.441,5.089c.793,2.965,2.111,5.933,2.165,8.917a15.8,15.8,0,0,0,4.007,10.863,10.109,10.109,0,0,1,.8,1.378H522.956a24.768,24.768,0,0,0,3.609-1.135c.7-.349,1.65-1.049,1.7-1.657a2.62,2.62,0,0,0-1.238-2.1,18.383,18.383,0,0,0-4.117-.973c-5.511-1.029-8.409-2.948-9.495-7.393a43.924,43.924,0,0,0-1.66-4.309,25.3,25.3,0,0,1-1.59-4.937c-.561-4.143-.9-8.32-1.215-12.493a11.042,11.042,0,0,1,.524-2.868c.365-1.813.85-3.612,1.072-5.445.159-1.3-.139-2.653-.04-3.967.515-6.925,1.092-13.847,1.65-20.769a2.446,2.446,0,0,1,.139-.976,8.849,8.849,0,0,0,.548-7.051c-.488-1.806.09-3.091,2.012-3.927a4.416,4.416,0,0,0,2.9-4.771c-.654-4.243-1.57-8.446-2.364-12.669-.422-2.254-1.225-4.528-1.142-6.769a21.831,21.831,0,0,0-3.7-13.485,3.421,3.421,0,0,1-.3-.876l1.384-1.849c-.568-.91-1.059-1.69-1.544-2.467,1.916-.933,3.579-1.743,5.365-2.609-.657-2.858,1.013-4.674,2.58-6.341-.405-1.219-1.218-2.36-.986-3.224.475-1.753-.478-3.307-.359-4.761.256-3.091-1.647-4.488-3.612-5.727-4.233-2.666-10.783-1.74-12.34,4.153a19.854,19.854,0,0,0-.047,9.707c-.913.6-2.271,1.023-2.367,1.64-.438,2.872-2.623,4.253-4.5,5.916-1.76,1.554-3.393,3.147-3.864,5.607-1.022,5.335-1.773,10.663-1.019,16.125,1.125,8.12,1.59,16.221-1.142,24.178a24.213,24.213,0,0,0-.754,4.24,11.969,11.969,0,0,0,2.872,10.172,32.928,32.928,0,0,1,2.682,3.366c.468.7,1.092,1.766.867,2.374-.657,1.74.076,2.915.926,4.246a5.751,5.751,0,0,1,.528,2.224c.236,1.623.385,3.257.631,4.88a8.076,8.076,0,0,1-4.11,8.153c-1.982,1.162-4.249,2.251-5.6,3.984-2.822,3.619-6.245,6.484-9.584,9.541a21.75,21.75,0,0,1-10.215,5.65c-2.427.535-2.629.94-2.566,3.436.04,1.484.285,2.961.445,4.512a7.4,7.4,0,0,1-7.4-2.43,18.933,18.933,0,0,1-3.7-5.76c-2.656-7-4.83-14.176-7.553-21.144-2.121-5.441-4.877-10.637-7.141-16.028-.647-1.537-1.2-3.6-.7-5.049,1.75-5.1,1.418-10.262.89-15.4-.269-2.609-.445-5.01.833-7.38a2.831,2.831,0,0,0-.189-3.419c-2.759-3.048-2.785-7.36-5.239-10.325,1.418-2.642,3.187-4.027,5.906-3.6.508-2.284.973-4.392,1.361-6.132-.448-1.836-.9-3.386-1.192-4.963a7.679,7.679,0,0,0-5.664-5.737c-1.829-.428-3.589-1.172-5.959-1.972-.123.066-.906.458-1.657.9a18.374,18.374,0,0,0-1.932,1.281c-2.088,1.643-2.221,2.264-1.361,4.814.365,1.092.584,2.234.983,3.8-2.895-2.181-2.895-2.181-6.351-1.285-.212.056-.435.066-.651.12-3.506.87-7.181,5.481-6.809,9.093a5.137,5.137,0,0,1-1.245,3.874,18.626,18.626,0,0,0-3.234,5.879l3.665-2.533c-.744,1.866-1.2,2.968-1.623,4.08-.232.611-.78,1.391-.588,1.833.969,2.2-.4,3.8-1.132,5.6-.495,1.2-.823,2.467-1.208,3.642.81.631,1.391,1.085,1.919,1.5-.866,3.814-.837,3.8.943,6.855a2.625,2.625,0,0,1,.209,1.819c-1.086,4.03-1.836,4.541-6.275,4.535a16.719,16.719,0,0,0-2.646.073,8.01,8.01,0,0,0-1.909,1.009l3.1,1.61c0,2.191.086,4.183-.02,6.165-.2,3.638-.538,7.267-.78,10.9-.159,2.4.153,2.812,2.467,3.522,1.106.339,2.218.651,3.376.989a6.448,6.448,0,0,1-.422,1.537c-2.639,4.186-2.981,8.877-3.34,13.654-.3,3.917-.388,7.981-2.593,11.516a3.744,3.744,0,0,0-.458,1.235c-.488,2.42.438,3.655,2.935,4.047.823.129,1.623.388,2.526.614-1.242,2.878-2.36,5.461-3.526,8.157-.727-.182-1.391-.149-1.723-.468-1.494-1.427-3.3-1.421-5.206-1.62a25.446,25.446,0,0,1-9.372-3.3c1.139-1.892.322-3.35-1.1-3.984a5.76,5.76,0,0,1-3.134-3.795c.807-1.421,2.072-2.606,1.942-3.612-.455-3.572-.525-7.284-2.52-10.537-.538-.88-1.115-2.161-.857-3.011a5.16,5.16,0,0,0-.362-4.107,5.979,5.979,0,0,1-.382-2.234,37.12,37.12,0,0,0-.339-5.886c-.983-4.3-2.344-8.5-3.409-12.778a21.87,21.87,0,0,1-.913-6.145c.123-2.7.163-5.265-1.072-7.745-.6-1.212-.2-2.035,1.112-2.6a4.391,4.391,0,0,0,2.228-1.723,5.461,5.461,0,0,1,3.081-2.812c1.56-.664,2.676-1.779,2.473-3.529-.309-2.689.993-3.685,3.393-4.3a4.673,4.673,0,0,0,2.848-2.427c1.056-2.729,1.567-5.594-1.467-7.685a22.372,22.372,0,0,1-1.936-1.8c-1.879-1.66-3.33-3.479-2.948-6.238a11.821,11.821,0,0,0-.179-2.636c-.438-4.588-1.683-9.12-.455-13.8.554-2.115-.345-4.12-1.368-6.009-.627-1.162-1.63-2.36-1.657-3.562-.08-3.439-1.773-5.806-4.263-7.838-.09-.073.023-.4.086-1.039a23.652,23.652,0,0,0,2.739.475c1.042.06,2.34.315,3.091-.176,1.574-1.032,2.888-2.33,5.01-1.55.272.1.78-.342,1.145-.584,2.254-1.507,3.3-3.443,1.926-6.032,3.317-1.823,3.552-2.108,2.477-5.222a3.934,3.934,0,0,1,.876-4.24c1.773-2.1,3.489-4.243,5.282-6.318,1.6-1.852,4.176-6.846,4.372-9a8.8,8.8,0,0,0-.269-3.24c-.83-2.8-2.009-3.174-4.644-1.667-.345.2-.727.335-1.4.644-1.66-2.745-3.582-5.225-4.751-8.021a10.364,10.364,0,0,0-11.712-6.5c-7.2,1.072-13.681,4.153-19.976,7.629a31.359,31.359,0,0,0-4.02,2.918,9.726,9.726,0,0,0-3.755,9.671c.4,2.832.412,5.714.681,8.562.176,1.859.525,3.7.767,5.551.342,2.629,1.288,4.618,4.442,4.439.116-.007.252.322.684.906a6.932,6.932,0,0,1-2.261.78c-2.636-.143-5.259-.574-7.895-.677-2.423-.1-4.82.083-6.846,1.839a5.082,5.082,0,0,1-2.663.883c-6.059.687-11.746-1.4-17.542-2.556-3.6-.717-5.488-.3-7.2,2.855-.89,1.647-1.979,2.6-3.864,2.52-1.517-.066-2.111.853-2.467,2.165-.6,2.224-1.252,4.442-1.962,6.636a20.692,20.692,0,0,0-.691,9.823c.428,2.606,1.232,5.149,1.663,7.752a45.39,45.39,0,0,1,.272,5.172,13.329,13.329,0,0,0,.2,2.506c.335,1.368.883,2.679,1.235,4.044.926,3.615,1.594,7.317,2.759,10.856a42.672,42.672,0,0,0,3.486,7.1,3.942,3.942,0,0,0,4.422,2.194c3.243-.591,6.494-1.152,9.74-1.726,1.613-.286,3.227-.6,4.89.262.173,2.268-1.2,4.575.3,6.753.2.292-.146,1.082-.4,1.547-3.612,6.464-4.117,13.661-4.933,20.782a28.723,28.723,0,0,0-.017,3.21c1.112.236,1.856.415,2.609.535.186.03.4-.126.9-.3A108.791,108.791,0,0,0,331.9-1651c1.016,2.663,2.191,5.372,3.054,8.173a5.974,5.974,0,0,1-.2,3.469,23.466,23.466,0,0,0-1.341,8.452c.11,3.758.242,7.516.272,11.274.04,5.215-.05,10.381-3.413,14.88a6.062,6.062,0,0,0-1.155,4.04c.481,3.476,1.716,6.892-.282,10.278,1.056,3.9-1.268,7.181-1.793,10.939H298.192c.554-1.351,1.826-1.159,3.024-1.308a9.535,9.535,0,0,0,6.348-3.18,2.465,2.465,0,0,0,.2-2.095c-.129-.339-1.125-.4-1.746-.485-.3-.04-.627.176-.946.249-2.536.584-6.059-.511-7.244-2.742-1.69-3.184-3.7-6.251-4.3-9.96-.452-2.812-1.262-5.567-1.826-8.366a7.225,7.225,0,0,1-.129-2.938c.956-4.18.455-8.356.083-12.522-.256-2.9-.823-5.76-1.268-8.768a19.31,19.31,0,0,0,2.958.4c2.3-.08,4.711-1.949,4.369-3.509a76.6,76.6,0,0,0-2.566-9.525c-.6-1.676-.8-2.719.74-3.98,1.945-1.59,3.483-4.01,2.765-6.348-.521-1.69.232-2.277.784-3.287a5.416,5.416,0,0,0,.777-1.451c.119-.684.249-1.633-.11-2.058a2.128,2.128,0,0,0-1.979-.4,45.518,45.518,0,0,0-4.256,2.427c-.774.448-1.56.883-2.208,1.248-1.786-3.748-3.373-7.071-4.973-10.428a12.238,12.238,0,0,0,2.3-1.252,28.361,28.361,0,0,0,6.779-9.495,2.432,2.432,0,0,0,.226-1.278,7.391,7.391,0,0,0-4.834-6.165c-2.58-1.092-5.179-1.361-7.37.85-1.474,1.487-2.812,3.107-4.213,4.668-1.846,2.052-3.479,4.359-5.584,6.1a18.119,18.119,0,0,0-6.464,10.843c-.388,1.922-.7,3.576.511,5.352a4.765,4.765,0,0,1,.339,2.858c-.355,3.864-.986,7.652-3.084,11.062a30.867,30.867,0,0,0-1.773,4.156c2.676.734,2.732,2.865,3.343,4.751a29.189,29.189,0,0,0,2.682,6.683,8.953,8.953,0,0,1,1.607,5.232,12.5,12.5,0,0,0,.176,2.971c.92,4.246-.143,8.1-2.224,11.752a23.464,23.464,0,0,0-3.419,10.617,8.875,8.875,0,0,1-.518,1.919c-1.527-3.011-3.011-5.823-4.372-8.695a7.481,7.481,0,0,1-.471-2.54c-.3-3.39-.435-6.8-.847-10.175-.3-2.5-.979-4.95-1.421-7.436-.578-3.25-.986-6.534-1.657-9.76-.783-3.771-1.872-7.476-2.643-11.248-.558-2.742-.259-5.3,2.7-6.743a3.716,3.716,0,0,0,1.471-1.311,6.507,6.507,0,0,1,3.917-2.819c2.221-.671,3.307-2.593,4.339-4.339,1.125-1.906.133-4-2.131-5.312-1.647,1.185-3.3,2.467-5.046,3.612-2.457,1.607-3.9,1.162-4.727-1.544a15.554,15.554,0,0,1-.724-4.542c0-3.748-.866-6.9-4.279-9.109a2.526,2.526,0,0,1,.432-4.648c2.184-.787,2.765-2.36,3.17-4.209.4-1.789,1.222-3.745.827-5.378a25.193,25.193,0,0,0-3.26-6.763,3.58,3.58,0,0,0-2.506-1.358,19.4,19.4,0,0,0-5.584.236c-3.914.866-4.827,1.919-5.637,6.341-.252,1.374.491,2.978.94,4.429s1.4,2.8.488,4.385c-4.578,2.072-9.1,2.46-13.721.126a8.153,8.153,0,0,0-7.659-.09A9.2,9.2,0,0,1,213-1684.64c-3.473.04-5.069,1.836-6.241,4.947a33.865,33.865,0,0,0-2.211,8.227c-.475,4.156,1.793,8.28-.04,12.406-.126.286.319.794.412,1.215a19.333,19.333,0,0,1,.385,2.251c.282,2.848.312,5.743.863,8.535a35.429,35.429,0,0,0,2.311,6.523,3.19,3.19,0,0,0,3.436,2.065c2.2-.162,4.4-.315,6.6-.4,1.374-.053,2.752.03,4.077.05.378,1.726.657,3,.926,4.236a3.214,3.214,0,0,1-.3.657c-4.04,5.229-5.674,11.4-6.972,17.708-.365,1.786.063,2.639,1.341,2.805,1.587.209,1.783-1.079,2.028-2.1.949-3.97,1.76-7.974,2.729-11.938.72-2.965,2-5.571,5.481-6.607.242,1.338.445,2.6.7,3.854a27.052,27.052,0,0,1-1.218,15.856c-2.563,6.51-4.13,13.3-3.35,20.407a8.863,8.863,0,0,1,.007,1.328,9.919,9.919,0,0,1-1.062,4.044,12.08,12.08,0,0,0-.75,9.255c-4.133,0-8.217-.036-12.3.013-3.2.036-6.391.176-9.584.272v12.688h847.734v-13ZM976.959-1686.5c-1.776-1.092-1.759-2.629-1.441-4.386C977.3-1689.294,977.3-1689.294,976.959-1686.5Zm.578-76.028c-.452-.182-.757-.209-.823-.349-1.57-3.376-3.091-6.779-4.678-10.149-1.105-2.344-.5-3.456,1.979-3.31,2.968.173,5.933.455,9.4.734C981.358-1771.032,979.445-1766.772,977.536-1762.526Zm-175.394,131.42-.773-.229q.353-1.091.714-2.175c.239.063.475.13.714.2C802.577-1632.578,802.361-1631.844,802.142-1631.107Zm-572.75-48.686c-.3.013-.6.03-.893.043l-.279-1.573c.388-.02.78-.036,1.172-.056Zm24.271,100.469c-5.3.023-10.6.037-15.9,0a6.221,6.221,0,0,1-5.687-6.238c.319-3.844.451-7.719,1.029-11.523a20.312,20.312,0,0,1,2.184-6.5c1.584-2.925,3.383-5.674,3.051-9.216a4.331,4.331,0,0,1,.4-1.926c1.179-2.955,2.407-5.889,3.878-9.455,2.609,3.227,4.847,5.72,4.634,9.734-.116,2.168.956,4.409,1.56,6.6q1.793,6.508,3.665,13c1.006,3.489,2.121,6.948,3.048,10.458a35.915,35.915,0,0,1,.6,4.724A20.067,20.067,0,0,1,253.663-1579.324Zm37.943-.007c-3.33,0-6.616.133-9.877-.093-.85-.057-1.856-1.089-2.37-1.932a3.71,3.71,0,0,0-3.828-1.886c-3.864.173-4.754-1.554-4.133-5.365.82-5.013,2.875-9.445,5.216-13.807,1.338-2.493,2.848-4.893,4.283-7.333.246.043.488.09.73.136.093.8.216,1.6.272,2.4.491,6.733,3.469,12.476,7.241,17.861A14.277,14.277,0,0,1,291.606-1579.331Zm39.058-141.933c1.64-1.461,3.114-.724,5.116-.651C333.921-1720.431,332.53-1720.252,330.664-1721.264Zm34.141,141.688-2.583.319c-.193-.359-.4-.554-.368-.717.5-3.356-.963-5.265-4.439-5.919a25.339,25.339,0,0,1-4.385-1.218c-1.677-.647-2.025-2.072-1.886-3.758a2.148,2.148,0,0,0-.664-1.574,24.6,24.6,0,0,0-2.822-1.826c1.517-2.095,2.945-3.828,4.077-5.737.5-.837.4-2.032.614-3.32,2.038,2.679,4.95,4.638,6.019,8.15a6.268,6.268,0,0,0,3.834,4.292c1.474.511,1.72,1.428,1.8,2.739a4.477,4.477,0,0,0,.647,2.5C366.282-1583.713,365.781-1581.817,364.805-1579.576Zm83.431.265c-7.184,0-14.372-.106-21.552.037-4.8.1-8.452-1.972-11.533-5.362a9.583,9.583,0,0,1-1.079-2.108c1-.74,1.856-1.374,2.742-2.035.026-.319.2-.757.053-.939-1.74-2.161-1.172-4.177.116-6.331,2.975-4.98,5.833-10.029,8.891-15.318,1.228,3.761,2.407,6.952,3.287,10.225a33.244,33.244,0,0,1,.525,5.209c.206,1.956.355,3.921.707,5.85.289,1.573,1.225,2.085,2.925,1.627,4.449-1.192,8.947-2.2,13.9-3.393a28.491,28.491,0,0,1,4.591,12.539Zm10.557-.521c2.467-1.474,4.933-2.951,7.45-4.455.893,1.607,1.67,3.008,2.686,4.837A43.83,43.83,0,0,1,458.793-1579.832Zm41.01.515q-9.606.035-19.209,0c-2.995-.01-4.13-.9-4.16-3.8-.033-3.244.664-6.4,2.971-8.874,1.5-1.6,3.22-2.985,4.86-4.445q5.438-4.846,10.9-9.661c.953-.837,1.985-1.583,2.985-2.374.229.129.455.262.684.392-.193,7.43,2.636,14.235,4.239,21.293a24.95,24.95,0,0,1,.657,2.9C504.046-1580.715,502.845-1579.327,499.8-1579.317Zm16.925-.023h-1.882v-.053h1.882Zm36.814-1.242c-.113.488-.906.823-1.388,1.229-.212-.209-.422-.418-.634-.628.056-1.155.116-2.311.193-3.831C553.482-1583.052,553.841-1581.89,553.542-1580.582Zm-1.3-5.063c-.329-.053-.657-.1-.989-.156.8-3.42-2.038-6.968.488-10.63,1.092,1.623,1.969,2.931,2.888,4.3C553.871-1590.067,553.057-1587.856,552.24-1585.645Zm117.626,6.583a2.573,2.573,0,0,1-2.669-2c-.767-2.184-1.574-4.356-2.374-6.53a16.41,16.41,0,0,0-1.311-3.38c-1.789-2.739-1.783-5.641-1.006-8.605,1.789-6.826,3.868-13.585,5.458-20.457,2.8-12.121,8.881-22.771,14.551-33.62a9.309,9.309,0,0,1,.7-1.122,3.661,3.661,0,0,1,.664-.518c.183.345.272.438.272.528-.027,6.723.126,13.455-.149,20.168a75.9,75.9,0,0,0,1.208,15.477,25.628,25.628,0,0,0,.966,4.186c1.278,3.695,2.251,7.377,1.185,11.334a5.384,5.384,0,0,0,.1,2.945c.953,2.882.491,5.733-.193,8.5a15.126,15.126,0,0,0,.462,9.412c.428,1.1.651,2.271,1.039,3.665C682.219-1579.075,676.041-1579.092,669.866-1579.062Zm53.928-133.976c-.036.82-.063,1.484-.106,2.44C722.423-1711.62,722.383-1712.287,723.794-1713.037Zm-19.667-28.169a4.583,4.583,0,0,1,1.032-4.565c2.4,4.92,4.591,9.405,7.091,14.518-2.3-.79-4.18-.166-5.684-1.982a8.457,8.457,0,0,1-1.985-5.4A10.652,10.652,0,0,0,704.127-1741.206Zm27.173,124.66c-.229,2.845-.641,5.68-.7,8.525-.126,5.62-.113,11.244-.053,16.865.02,1.68-.335,2.951-2.477,3.353.681,1.381.933,2.8,1.773,3.423,2.018,1.484,1.491,3.151,1.009,5.172h-5.372a25.683,25.683,0,0,0-.966-2.583c-.777-1.59-1.955-2.686-3.884-2.55-2.36.169-4.206-.926-6.069-2.214-2.447-1.687-5.006-3.214-7.579-4.7-1.5-.87-2.211-1.8-1.833-3.718a45.59,45.59,0,0,0,.209-15.8,41.619,41.619,0,0,1-.043-8.934c.478-7.161,1.145-14.308,1.69-21.463a24.521,24.521,0,0,0,.123-5.617c-1.142-7.161.126-14.172,1.7-21.011,3.466-15.055,3.257-30.234,2.609-45.479a4.727,4.727,0,0,1,.126-.9c1.451,1.55,2.666,2.925,3.961,4.213,1.351,1.341,1.381,1.843-.043,3.147-.312.289-.657.541-.946.777.066.332.036.644.166.74,2.311,1.759,2.921,4.448,3.552,6.995a93.229,93.229,0,0,1,2.062,11.045,9.518,9.518,0,0,0,2.583,5.909c2.732,2.769,2.895,6.58,3.987,10.013a.53.53,0,0,1,0,.329c-1.806,4.316.133,8.714-.289,13.077-.428,4.389-.481,8.814-.76,13.22-.139,2.2-.508,4.389-.6,6.593-.109,2.476.13,2.872,2.646,3.267a2.546,2.546,0,0,1,2.42,2.586c.445,3.39,1.039,6.766,1.328,10.165A34.074,34.074,0,0,1,731.3-1616.546Zm16.576,4.186c.368,7.247,2.131,14.441,1.567,21.788C749.2-1597.845,746.359-1604.91,747.876-1612.36Zm.7,33.388c-.983-1.71-1.889-3.29-2.981-5.192,2.649-.043,2.111,2.065,3.214,3.217.757-.1,1.69-.219,2.726-.352.073.564.156,1.2.276,2.118C750.645-1579.1,749.606-1579.038,748.573-1578.972Zm16.284-50.724c.189-.027.375-.05.564-.073q.408,3.187.817,6.377c-.176,0-.355.01-.531.013Q765.279-1626.536,764.857-1629.7Zm43.776-44.253c.89.245,1.779.495,2.825.783-.608,1.281-1.109,2.341-1.939,4.09-.631-1.826-1.056-3.051-1.481-4.276C808.237-1673.551,808.433-1673.75,808.632-1673.949Zm-3.516,42.4c.684.345,1.388.7,2.171,1.1-.544,1.789-1.032,3.39-1.52,4.99-.216-.03-.435-.056-.651-.086ZM837.923-1579q-13.764.015-27.535,0c-1.633,0-3.29.232-4.741-.949a3.141,3.141,0,0,0-1.906-.352c-2.995.1-4.568-1.716-5.747-4.116a5.746,5.746,0,0,1,.661-6.331c3.585-5.166,7.171-10.358,10.371-15.766,1.657-2.8,2.47-6.1,3.708-9.15.9-2.228,1.673-4.558,4.093-6.178,3.473,5.936,6.67,11.726,10.192,17.31,2.347,3.725,5.219,7.118,7.739,10.743a40.172,40.172,0,0,1,4.073,6.736,62.438,62.438,0,0,1,2.284,7.915C840.045-1579.088,838.986-1579,837.923-1579Zm52.962-.126c1.076-.8,1.763-1.311,2.639-1.965.691.79,1.089,1.248,1.716,1.965Zm28.511.02H904.805l.767-.767c-1.125-.979-2.248-1.959-3.871-3.373-.143-2.955,1.255-6.384,2.974-9.89,3.28-6.7,6.112-13.611,9.133-20.437l.578.01c-.223,2.052-.445,4.1-.657,6.059.226.266.332.515.508.574,3.419,1.162,4.359,4.173,4.837,7.154a97.557,97.557,0,0,1,.727,10.537q.2,4.1.2,8.21A6.873,6.873,0,0,1,919.4-1579.1Zm80.161-13.027c1.006,1.311,1.371,2.36.216,3.795a17.3,17.3,0,0,0-1.623,3.16c-.1.2-.362.485-.312.555,1.577,2.1-.644,3.585-.863,5.508h-15.66a4.322,4.322,0,0,1,.163-1.617c.846-1.437.239-2.5-.694-3.562-3.154-3.579-3.941-7.772-3.054-12.337.471-2.437,1.082-4.847,1.706-7.6,2.649.624,4.18-1.039,5.637-2.659,2.43-2.7,4.741-5.511,7.1-8.276,1.2-1.4,2.4-2.809,3.751-4.385,1.713,7.788,3.34,15.195,5.013,22.814C997.685-1595.528,997.449-1594.871,999.557-1592.132Z" transform="translate(-200.28 1872.683)"/>
      <path id="Path_787" data-name="Path 787" d="M284.716-1294.809q-.139-.787-.279-1.574l1.173-.056v1.586Z" transform="translate(-256.498 1487.743)" fill="#fff"/>
      <ellipse id="Ellipse_92" data-name="Ellipse 92" cx="1.331" cy="0.038" rx="1.331" ry="0.038" transform="translate(314.176 293.277)" fill="#fff"/>
    </g>
    <g id="Group_182" data-name="Group 182" transform="translate(1090.578 124.418)">
      <path id="Path_788" data-name="Path 788" d="M749.019-1727.727a39.4,39.4,0,0,0-8.655-.1c-6.33.549-10.335,4.286-11.593,10.452-.107.532-.217,1.067-.325,1.6a63.466,63.466,0,0,1-2.288-8.3c-2.62-11.269-5.347-22.514-7.839-33.809-.967-4.39-2.1-8.568-4.8-12.306-2.536-3.516-3.393-7.682-3.587-11.995a39.89,39.89,0,0,0-.673-6.287c-1.107-5.333-1.174-5.32,3.7-8.033,3.316-1.847,3.9-2.774,2.275-6.123-2.663-5.494-5.594-10.877-8.726-16.12-.887-1.489-2.787-2.453-4.366-3.433a42.557,42.557,0,0,0-4.58-2.168,16.825,16.825,0,0,1,3.011-.013c1.248-.094,2.807-.589,2.426-2.108-.632-2.539.284-4.721.806-7.049.469-2.081.86-4.082,3.041-5.136,1.5-.723,1.372-1.854.552-3.038a5.817,5.817,0,0,0-1.051-1.292c-2.048-1.609-2.215-3.613-1.616-6,.923-3.647.974-7.267-1.027-10.683a6.717,6.717,0,0,1-.686-2.211c-1.1-6.21-2.958-8.026-9.291-9.017a26.042,26.042,0,0,1-5.183-.883,12.554,12.554,0,0,0-13.761,2.891,13.417,13.417,0,0,1-3.316,2.687c-2.135,1.071-3.259,2.342-2.921,4.952.211,1.629.2,3.66-2.309,4.437-1.73-2.984-4.018-5.353-7.739-6.12.161.887.268,1.479.418,2.315-2.332.365-4.687-.174-6.872.87.937.853,1.683,1.529,2.58,2.345-1.74,1.261-3.72,1.874-3.172,4.507,1.335.07,2.707.137,4.577.234-1.138,1.894-2.081,3.459-3.152,5.236l4.467,2.871c-.141.642-.261,1.067-.325,1.5-.381,2.493.02,3.088,2.576,2.807a51.08,51.08,0,0,0,6.384-1.562c.422,2.432.877,5.089,1.425,8.284.05.03.689.432,1.151.723.7,2.523-.639,3.8-2.56,4.691-3.024,1.4-6.076,2.747-9.107,4.135-4.172,1.911-8.177,4.072-11.332,7.518a12.553,12.553,0,0,0-3.366,7.448c-1.007,9.736-2.128,19.462-3.222,29.189a67.927,67.927,0,0,0-.93,7.953,37.742,37.742,0,0,0,1.051,8.548c.582,2.419,2.258,3.1,4.654,2.51.937-.234,1.843-.582,3.048-.967a27.347,27.347,0,0,0,3.168,12.078,5.889,5.889,0,0,1-.094,5.768c-1.532,2.8-1.368,5.808-.626,8.786.432,1.727,1.067,3.4,1.6,5.1a8.1,8.1,0,0,1-1.057,7.625,21.032,21.032,0,0,0-1.639,2.9c-.127.248-.02.612-.02,1.037.984.191,1.921.375,3.035.592a32.95,32.95,0,0,1,.512,4.055c.02,8.147,2.131,15.869,4.891,23.417,2.717,7.441,5.219,14.912,6.441,22.771a10.713,10.713,0,0,0,1.318,4.082,5.667,5.667,0,0,1,.582,4.794,30.277,30.277,0,0,1-1.76,4.674c-2.476,5.47-5.149,10.86-7.464,16.4a37.138,37.138,0,0,0-1.934,7.722c-.729,4.045-1.251,8.13-1.864,12.2a51.509,51.509,0,0,0-.86,5.932c-.094,2.9-.2,5.618-1.864,8.274-1.051,1.683-1.047,4.038-1.456,6.1-.15.756.117,1.67-.211,2.305-1.833,3.567-1.74,7.558-2.7,11.309-.636,2.5-1.161,4.8.823,6.832h-9.2c-10.476,0-20.951.02-31.43-.03-1.044,0-2.57-.074-3.034-.719-1.164-1.606-2.62-1.847-4.34-1.951a2.4,2.4,0,0,1-2.472-2.3c8.772-7.548,13.748-17.482,17.515-28.3,4.446,4.53,7.307,9.512,7.849,14.407a28.407,28.407,0,0,0,3.884,11.258,6.257,6.257,0,0,1,.883,4.122c-.361,2.9.1,3.61,2.884,3.333a57.13,57.13,0,0,0,9.435-1.833c1.582-.435,2.971-1.589,4.447-2.422-.733-1.673-1.907-1.549-2.984-1.613-3.389-.2-4.457-1.1-5.139-4.336-.087-.422-.11-.964-.381-1.228-3.138-3.085-3.7-7.277-4.768-11.212-.622-2.285-.5-4.791-1.241-7.019-2.181-6.561-4.634-13.032-6.769-18.957l2.59-11.65a62.229,62.229,0,0,0,7.3,2.482,9.9,9.9,0,0,1,6.23,4.517c.371.535.739,1.07,1.087,1.572,2.539-.893,2.539-.893,3.894-3.707-.619-1.723-1.472-3.409-3.443-3.71-2.573-.391-4.446-1.937-6.481-3.276a64.245,64.245,0,0,0-6.216-3.884,7.511,7.511,0,0,1-4.045-4.216c-1.6-4.557-3.038-9.167-4.667-14.146,4.815-.13,3.684-4.664,5.771-6.658a22.437,22.437,0,0,0-1.067-3.918c-.646-1.358-1.375-2.974-2.549-3.717-1.94-1.228-4.269-.78-6.5-.294-1.746.378-2.171,1.71-2.764,3.028a3.245,3.245,0,0,1-.743,1.1c-1.211,1.087-1.117,2.178-.415,3.57,1.412,2.794,1.435,3.158-.87,5.169-3.864,3.366-5.169,7.6-5.069,12.533a11.4,11.4,0,0,1-.7,4.567,43.451,43.451,0,0,1-4.109,7.993c-1.961,2.827-1.924,5.818-1.777,8.94.107,2.238,2.469,3.975,1.452,6.481-.05.13.141.438.3.559,1.961,1.472,1.285,3.309.709,5.119a35.011,35.011,0,0,0-1.522,4.754c-.184,1.108-.134,2.7.529,3.416,1.566,1.686.877,2.937-.05,4.45-1.974,3.222-3.831,6.514-5.8,9.743-1.211,1.984-2.509,3.918-3.811,5.848a61.986,61.986,0,0,0-3.7,5.423c-1.2,2.278-.659,3.657,1.506,5.082.612.4,1.265.739,1.9,1.107a43.26,43.26,0,0,1-8.669.458c-.569-.017-1.486-.455-1.616-.887-.7-2.319-2.576-3.111-4.493-4.092a21.212,21.212,0,0,1-3.6-2.971c2.486-2.881.592-4.768-1.536-6.655,2.416-2.178,1.854-4.771,1.472-7.3-.432-2.861-.93-5.715-1.476-8.555a8.034,8.034,0,0,1,2.322-7.622c1.556-1.586,2.9-3.369,4.359-5.049a54.868,54.868,0,0,1,5.179-5.822c2.232-1.934,2.8-4.63,3.075-7.036.646-5.688-1.064-11.459.117-17.2a3.36,3.36,0,0,0-.067-.994c-.622-5.574-1.248-11.151-1.85-16.551,2.854-.9,5.658-1.787,8.786-2.774-2.483-10.1-6.574-19.335-7.7-29.4,2.683-1.188,5-2.841,5.835-5.414,1.335-4.085,5.661-5.882,6.969-9.867,2.774-.662,1.941-3.135,2.77-5.223a16.365,16.365,0,0,1-3.209-.047,21.318,21.318,0,0,1-2.563-1.161c-1.275-.468-3.526.468-3.259,1.365.629,2.084-1.365,3.045-1.539,4.751a25.872,25.872,0,0,1-2.543-9.535c-.4-6.3-.733-12.6-3.269-18.6a4.525,4.525,0,0,0-2.934-2.69c-3.155-1.312-6.337-2.56-9.924-4,.562-1.646.763-3.252,1.579-4.433,1.609-2.332,2.011-5.042,2.877-7.6.529-1.563,1.432-3.4,1.03-4.788a7.1,7.1,0,0,1,1.422-6.882,11.7,11.7,0,0,0-4.155-6.233,22.068,22.068,0,0,0-10.466-3.821,4.193,4.193,0,0,0-1.783.385c-2.938,1.111-4.714,3.533-6.283,6.022a5.775,5.775,0,0,0-.458,3.5c.207,1.736.813,3.419,1.168,5.146.1.5.124,1.359-.161,1.552-1.73,1.181-1.322,2.646-.682,4.129.616,1.435.482,3.446,2.794,3.68.348.033.739.729.917,1.191,1.392,3.634-.358,6.712-4.165,7.421a12.7,12.7,0,0,0-7.705,4.674,10.508,10.508,0,0,1-2.115,2.305c-3.61,2.52-6.156,5.675-6.367,10.392a16.759,16.759,0,0,1-1.412,5.089,13.888,13.888,0,0,0-.87,7.193,12.272,12.272,0,0,1,.013,2.911c-.241,2.616-.639,5.223-.806,7.843-.1,1.492-.395,3.379.345,4.423,1.194,1.693.656,3.135.412,4.724-1.171,7.635-1.82,15.254.328,22.855a9.059,9.059,0,0,1,.12,3.64c-.5,3.513-1.144,7-1.73,10.5-.545,3.259,2.59,7.284,5.765,6.672,2.312-.445,3.948.164,5.976,1.589v-5.484c2.212,2.6,4.718,4.962,4.7,8.388a43.519,43.519,0,0,0,3.774,17.164,8.871,8.871,0,0,1,.348,5.527,17.055,17.055,0,0,0-.12,5.551c.582,4.865.957,9.576-3.657,12.965a14.012,14.012,0,0,0-1.472,1.8c-1.245,1.318-2.626,2.3-4.624,2.088-3.433-.355-5.263,1.452-4.768,4.855a45.975,45.975,0,0,0,1.452,5.129c.8,2.988,2.128,5.979,2.181,8.987a15.92,15.92,0,0,0,4.038,10.947,10.182,10.182,0,0,1,.806,1.388H525.475a24.969,24.969,0,0,0,3.637-1.144c.709-.351,1.663-1.057,1.71-1.67a2.64,2.64,0,0,0-1.248-2.121,18.531,18.531,0,0,0-4.149-.98c-5.554-1.037-8.475-2.971-9.569-7.451a44.266,44.266,0,0,0-1.673-4.343,25.5,25.5,0,0,1-1.6-4.975c-.565-4.175-.907-8.384-1.225-12.59a11.127,11.127,0,0,1,.529-2.891c.368-1.827.856-3.64,1.081-5.487.161-1.311-.141-2.673-.04-4,.519-6.979,1.1-13.955,1.663-20.931a2.468,2.468,0,0,1,.141-.984,8.917,8.917,0,0,0,.552-7.106c-.492-1.82.09-3.115,2.028-3.958a4.451,4.451,0,0,0,2.921-4.808c-.659-4.276-1.583-8.512-2.382-12.768-.425-2.272-1.234-4.564-1.151-6.822a22,22,0,0,0-3.731-13.591,3.451,3.451,0,0,1-.3-.883l1.4-1.864c-.572-.917-1.067-1.7-1.556-2.486,1.931-.94,3.607-1.756,5.407-2.63-.662-2.881,1.02-4.711,2.6-6.39-.408-1.228-1.228-2.379-.994-3.249.478-1.767-.482-3.333-.361-4.8.258-3.115-1.659-4.523-3.64-5.771-4.266-2.687-10.867-1.753-12.436,4.186a20.009,20.009,0,0,0-.047,9.783c-.92.605-2.289,1.031-2.386,1.653-.442,2.894-2.643,4.286-4.537,5.962-1.773,1.566-3.419,3.172-3.894,5.651-1.03,5.376-1.787,10.747-1.027,16.25,1.134,8.184,1.6,16.347-1.151,24.367a24.383,24.383,0,0,0-.76,4.272,12.062,12.062,0,0,0,2.894,10.251,33.21,33.21,0,0,1,2.7,3.393c.472.706,1.1,1.78.873,2.392-.662,1.753.077,2.937.934,4.279a5.8,5.8,0,0,1,.532,2.242c.238,1.636.388,3.282.636,4.918a8.139,8.139,0,0,1-4.142,8.217c-2,1.171-4.283,2.269-5.648,4.015-2.844,3.647-6.293,6.534-9.659,9.616a21.92,21.92,0,0,1-10.295,5.694c-2.446.539-2.65.947-2.586,3.463.04,1.5.288,2.984.448,4.547a7.456,7.456,0,0,1-7.458-2.449,19.082,19.082,0,0,1-3.731-5.8c-2.677-7.053-4.868-14.286-7.612-21.309-2.138-5.484-4.915-10.72-7.2-16.153-.652-1.549-1.208-3.63-.706-5.089,1.763-5.142,1.429-10.342.9-15.518-.271-2.63-.448-5.049.84-7.437a2.854,2.854,0,0,0-.191-3.446c-2.78-3.071-2.807-7.417-5.28-10.405,1.429-2.663,3.212-4.058,5.952-3.627.512-2.3.98-4.426,1.372-6.18-.452-1.85-.9-3.413-1.2-5a7.739,7.739,0,0,0-5.708-5.781c-1.844-.432-3.617-1.181-6.006-1.987-.124.067-.913.462-1.67.907a18.52,18.52,0,0,0-1.947,1.291c-2.1,1.656-2.238,2.282-1.372,4.851.368,1.1.589,2.252.99,3.827-2.918-2.2-2.918-2.2-6.4-1.295-.214.057-.438.067-.656.121-3.533.877-7.237,5.524-6.862,9.164a5.177,5.177,0,0,1-1.255,3.9,18.774,18.774,0,0,0-3.259,5.925l3.694-2.553c-.749,1.88-1.2,2.991-1.636,4.112-.234.615-.786,1.4-.592,1.847.977,2.215-.4,3.831-1.141,5.641-.5,1.208-.83,2.486-1.218,3.67.816.636,1.4,1.094,1.934,1.509-.873,3.844-.843,3.828.95,6.909a2.645,2.645,0,0,1,.211,1.833c-1.094,4.062-1.85,4.577-6.323,4.57a16.863,16.863,0,0,0-2.667.074,8.066,8.066,0,0,0-1.924,1.017l3.128,1.623c0,2.208.087,4.216-.02,6.213-.2,3.667-.542,7.324-.786,10.988-.161,2.415.154,2.834,2.486,3.55,1.114.341,2.235.656,3.4,1a6.5,6.5,0,0,1-.425,1.549c-2.66,4.219-3,8.947-3.366,13.761-.3,3.948-.392,8.043-2.613,11.606a3.769,3.769,0,0,0-.462,1.245c-.492,2.439.442,3.684,2.958,4.078.83.13,1.636.391,2.546.619-1.251,2.9-2.379,5.5-3.553,8.22-.733-.184-1.4-.15-1.736-.472-1.506-1.438-3.329-1.432-5.246-1.633a25.647,25.647,0,0,1-9.445-3.322c1.148-1.907.325-3.376-1.107-4.015a5.8,5.8,0,0,1-3.158-3.824c.813-1.432,2.088-2.626,1.957-3.64-.458-3.6-.529-7.341-2.539-10.619-.542-.886-1.124-2.178-.863-3.035a5.2,5.2,0,0,0-.365-4.139,6.026,6.026,0,0,1-.385-2.252c-.127-1.98.1-4.028-.341-5.932-.99-4.329-2.362-8.568-3.436-12.878a22.04,22.04,0,0,1-.92-6.193c.124-2.717.164-5.306-1.081-7.806-.606-1.221-.2-2.051,1.121-2.62a4.424,4.424,0,0,0,2.245-1.736,5.5,5.5,0,0,1,3.1-2.834c1.573-.669,2.7-1.793,2.493-3.557-.311-2.71,1-3.714,3.419-4.333a4.71,4.71,0,0,0,2.871-2.446c1.064-2.75,1.579-5.638-1.479-7.746a22.523,22.523,0,0,1-1.951-1.813c-1.894-1.673-3.356-3.506-2.971-6.286a11.92,11.92,0,0,0-.181-2.657c-.442-4.624-1.7-9.191-.458-13.908.559-2.131-.348-4.152-1.378-6.056-.632-1.171-1.643-2.379-1.67-3.59-.08-3.466-1.787-5.852-4.3-7.9-.09-.074.023-.4.087-1.047a23.875,23.875,0,0,0,2.76.479c1.051.06,2.359.318,3.115-.177,1.586-1.04,2.911-2.349,5.049-1.562.274.1.786-.345,1.154-.589,2.272-1.519,3.329-3.47,1.941-6.079,3.342-1.837,3.58-2.125,2.5-5.263a3.964,3.964,0,0,1,.883-4.272c1.787-2.115,3.516-4.276,5.323-6.367,1.609-1.867,4.209-6.9,4.406-9.067a8.867,8.867,0,0,0-.271-3.266c-.836-2.824-2.024-3.2-4.681-1.679-.348.2-.733.338-1.415.649-1.673-2.767-3.61-5.266-4.788-8.083a10.445,10.445,0,0,0-11.8-6.548c-7.257,1.081-13.788,4.186-20.131,7.689a31.6,31.6,0,0,0-4.052,2.941,9.8,9.8,0,0,0-3.784,9.746c.4,2.854.415,5.758.686,8.629.177,1.874.529,3.727.773,5.594.345,2.65,1.3,4.654,4.477,4.473.117-.007.254.325.689.913a6.983,6.983,0,0,1-2.278.786c-2.657-.144-5.3-.579-7.956-.682-2.442-.1-4.858.084-6.9,1.854a5.119,5.119,0,0,1-2.683.89c-6.106.693-11.837-1.415-17.679-2.576-3.623-.723-5.531-.3-7.257,2.877-.9,1.659-1.994,2.62-3.894,2.539-1.529-.067-2.128.86-2.486,2.182-.609,2.242-1.261,4.477-1.977,6.688a20.854,20.854,0,0,0-.7,9.9c.432,2.626,1.241,5.189,1.676,7.812a45.74,45.74,0,0,1,.274,5.213,13.433,13.433,0,0,0,.2,2.526c.338,1.379.89,2.7,1.245,4.075.934,3.644,1.606,7.374,2.78,10.941a43.01,43.01,0,0,0,3.513,7.16,3.972,3.972,0,0,0,4.457,2.212c3.269-.6,6.544-1.161,9.816-1.74,1.626-.288,3.252-.609,4.928.264.174,2.285-1.2,4.611.3,6.805.2.294-.147,1.091-.408,1.559-3.64,6.514-4.149,13.768-4.972,20.944a28.955,28.955,0,0,0-.017,3.236c1.121.238,1.87.418,2.63.539.187.03.4-.127.907-.3a109.637,109.637,0,0,0,2.188-17.87c1.024,2.683,2.208,5.414,3.078,8.237a6.02,6.02,0,0,1-.2,3.5,23.649,23.649,0,0,0-1.352,8.518c.11,3.787.244,7.575.274,11.362.04,5.256-.05,10.462-3.439,15a6.11,6.11,0,0,0-1.164,4.072c.485,3.5,1.73,6.946-.284,10.358,1.064,3.931-1.278,7.237-1.807,11.024H298.957c.559-1.362,1.84-1.167,3.048-1.318a9.61,9.61,0,0,0,6.4-3.205,2.485,2.485,0,0,0,.2-2.111c-.131-.341-1.134-.4-1.76-.489-.3-.04-.632.177-.953.251-2.556.589-6.106-.515-7.3-2.764-1.7-3.209-3.727-6.3-4.329-10.037-.455-2.834-1.271-5.611-1.84-8.431a7.282,7.282,0,0,1-.131-2.961c.964-4.212.458-8.421.084-12.62-.258-2.917-.83-5.805-1.278-8.836a19.485,19.485,0,0,0,2.981.4c2.315-.08,4.748-1.964,4.4-3.536a77.19,77.19,0,0,0-2.586-9.6c-.606-1.69-.81-2.74.746-4.012,1.961-1.6,3.51-4.042,2.787-6.4-.525-1.7.234-2.3.79-3.312a5.454,5.454,0,0,0,.783-1.462c.12-.689.251-1.646-.11-2.074a2.144,2.144,0,0,0-1.994-.405,45.922,45.922,0,0,0-4.289,2.446c-.78.452-1.572.89-2.225,1.258-1.8-3.777-3.4-7.126-5.012-10.509a12.327,12.327,0,0,0,2.315-1.261,28.583,28.583,0,0,0,6.832-9.569,2.45,2.45,0,0,0,.228-1.288,7.448,7.448,0,0,0-4.871-6.213c-2.6-1.1-5.219-1.372-7.428.856-1.486,1.5-2.834,3.132-4.246,4.7-1.86,2.068-3.506,4.393-5.628,6.146a18.26,18.26,0,0,0-6.514,10.927c-.392,1.937-.7,3.6.515,5.394a4.8,4.8,0,0,1,.341,2.881c-.358,3.895-.994,7.712-3.108,11.148a31.118,31.118,0,0,0-1.787,4.189c2.7.739,2.754,2.887,3.369,4.788a29.422,29.422,0,0,0,2.7,6.735,9.022,9.022,0,0,1,1.619,5.273,12.6,12.6,0,0,0,.177,2.994c.927,4.279-.144,8.164-2.242,11.844a23.646,23.646,0,0,0-3.446,10.7,8.946,8.946,0,0,1-.522,1.934c-1.539-3.035-3.035-5.869-4.406-8.763a7.54,7.54,0,0,1-.475-2.56c-.3-3.416-.438-6.852-.853-10.255-.3-2.52-.987-4.989-1.432-7.495-.582-3.276-.994-6.584-1.67-9.837-.79-3.8-1.887-7.534-2.663-11.335-.562-2.764-.261-5.336,2.72-6.8a3.747,3.747,0,0,0,1.482-1.321,6.558,6.558,0,0,1,3.948-2.841c2.238-.676,3.332-2.613,4.373-4.373,1.134-1.921.134-4.032-2.148-5.353-1.659,1.194-3.329,2.486-5.086,3.64-2.476,1.619-3.928,1.171-4.764-1.556a15.675,15.675,0,0,1-.729-4.577c0-3.777-.873-6.952-4.313-9.181a2.546,2.546,0,0,1,.435-4.684c2.2-.793,2.787-2.379,3.2-4.242.4-1.8,1.231-3.774.833-5.42a25.39,25.39,0,0,0-3.286-6.815,3.609,3.609,0,0,0-2.526-1.368,19.55,19.55,0,0,0-5.628.238c-3.945.873-4.865,1.934-5.681,6.39-.254,1.385.5,3,.947,4.463s1.412,2.821.492,4.42c-4.614,2.088-9.171,2.479-13.828.127a8.215,8.215,0,0,0-7.719-.09,9.278,9.278,0,0,1-3.794,1.161c-3.5.04-5.109,1.85-6.29,4.985a34.13,34.13,0,0,0-2.228,8.291c-.478,4.189,1.807,8.344-.04,12.5-.127.288.321.8.415,1.224a19.476,19.476,0,0,1,.388,2.268c.284,2.871.314,5.788.87,8.6a35.706,35.706,0,0,0,2.329,6.574,3.215,3.215,0,0,0,3.463,2.081c2.218-.164,4.436-.318,6.655-.4,1.385-.053,2.774.03,4.109.05.381,1.74.662,3.028.933,4.269a3.246,3.246,0,0,1-.3.662c-4.072,5.27-5.718,11.493-7.026,17.846-.368,1.8.064,2.66,1.352,2.827,1.6.211,1.8-1.087,2.044-2.114.957-4,1.773-8.037,2.75-12.031.726-2.988,2.011-5.614,5.524-6.658.244,1.349.448,2.623.709,3.884a27.264,27.264,0,0,1-1.228,15.979c-2.583,6.561-4.162,13.4-3.376,20.566a8.934,8.934,0,0,1,.007,1.338,10,10,0,0,1-1.071,4.075,12.174,12.174,0,0,0-.756,9.328c-4.165,0-8.281-.037-12.4.013-3.222.037-6.441.177-9.659.274v12.787H751.7v-14.735c-.586-1.027-1.184-2.068-1.854-3.232a2.239,2.239,0,0,1,1.854.642V-1727.1A14.73,14.73,0,0,0,749.019-1727.727Zm-519.4,49.44c-.3.013-.6.03-.9.043l-.281-1.586c.391-.02.786-.037,1.181-.057Zm24.461,101.253c-5.34.024-10.68.037-16.019,0a6.27,6.27,0,0,1-5.731-6.287c.321-3.874.455-7.779,1.037-11.613a20.471,20.471,0,0,1,2.2-6.554c1.6-2.948,3.409-5.718,3.075-9.288a4.365,4.365,0,0,1,.4-1.941c1.188-2.978,2.426-5.935,3.908-9.529,2.63,3.252,4.885,5.765,4.671,9.81-.117,2.185.964,4.443,1.573,6.651q1.807,6.559,3.694,13.1c1.014,3.516,2.138,7,3.071,10.539a36.215,36.215,0,0,1,.6,4.761A20.2,20.2,0,0,1,254.08-1577.034Zm38.239-.007c-3.356,0-6.668.134-9.954-.094-.857-.057-1.87-1.1-2.389-1.947a3.74,3.74,0,0,0-3.858-1.9c-3.894.174-4.791-1.566-4.165-5.407.826-5.052,2.9-9.519,5.256-13.915,1.348-2.513,2.871-4.932,4.316-7.391.248.043.492.09.736.137.094.806.217,1.609.274,2.416.5,6.785,3.5,12.573,7.3,18A14.389,14.389,0,0,1,292.319-1577.041Zm39.363-143.041c1.653-1.472,3.138-.729,5.156-.656C334.964-1719.242,333.562-1719.061,331.682-1720.082Zm34.408,142.794-2.6.321c-.194-.361-.4-.559-.371-.723.505-3.383-.97-5.306-4.473-5.965a25.536,25.536,0,0,1-4.42-1.228c-1.69-.652-2.041-2.088-1.9-3.787a2.165,2.165,0,0,0-.669-1.586,24.8,24.8,0,0,0-2.844-1.84c1.529-2.111,2.968-3.858,4.109-5.782.505-.843.4-2.048.619-3.346,2.054,2.7,4.989,4.674,6.066,8.214a6.317,6.317,0,0,0,3.864,4.326c1.486.515,1.733,1.439,1.81,2.76a4.511,4.511,0,0,0,.652,2.516C367.578-1581.457,367.073-1579.547,366.089-1577.288Zm84.082.268c-7.24,0-14.484-.107-21.721.037-4.838.1-8.518-1.987-11.623-5.4a9.648,9.648,0,0,1-1.087-2.125c1.007-.746,1.87-1.385,2.764-2.051.027-.321.2-.763.054-.947-1.753-2.178-1.181-4.209.117-6.38,3-5.019,5.879-10.107,8.96-15.437,1.238,3.791,2.426,7.006,3.312,10.3a33.5,33.5,0,0,1,.529,5.25c.207,1.971.358,3.951.713,5.9.291,1.586,1.235,2.1,2.948,1.64,4.483-1.2,9.017-2.215,14.009-3.419a28.714,28.714,0,0,1,4.627,12.637Zm10.639-.525c2.486-1.486,4.972-2.975,7.508-4.49.9,1.619,1.683,3.031,2.707,4.875A44.207,44.207,0,0,1,460.811-1577.546Zm41.33.518q-9.681.035-19.359,0c-3.018-.01-4.162-.91-4.192-3.828-.033-3.269.669-6.454,2.994-8.943,1.509-1.609,3.245-3.008,4.9-4.48q5.48-4.883,10.984-9.736c.96-.843,2-1.6,3.008-2.392.231.13.458.264.689.395-.194,7.488,2.657,14.347,4.273,21.46a25.161,25.161,0,0,1,.663,2.921C506.417-1578.436,505.206-1577.037,502.141-1577.027Zm17.057-.023h-1.9v-.054h1.9Zm37.1-1.251c-.114.492-.914.83-1.4,1.238-.214-.211-.425-.422-.639-.632.057-1.164.117-2.329.194-3.861C556.239-1580.791,556.6-1579.62,556.3-1578.3Zm-1.312-5.1c-.331-.053-.663-.1-1-.157.81-3.446-2.054-7.023.492-10.713,1.1,1.636,1.984,2.954,2.911,4.336C556.631-1587.861,555.811-1585.633,554.988-1583.4Zm118.544,6.635a2.593,2.593,0,0,1-2.69-2.011c-.773-2.2-1.586-4.39-2.392-6.581a16.545,16.545,0,0,0-1.322-3.406c-1.8-2.76-1.8-5.684-1.014-8.672,1.8-6.879,3.9-13.691,5.5-20.617,2.824-12.215,8.95-22.949,14.665-33.883a9.356,9.356,0,0,1,.7-1.131,3.671,3.671,0,0,1,.669-.522c.184.348.274.442.274.532-.027,6.775.127,13.56-.151,20.325a76.492,76.492,0,0,0,1.218,15.6,25.81,25.81,0,0,0,.974,4.219c1.288,3.724,2.268,7.434,1.195,11.422a5.426,5.426,0,0,0,.1,2.968c.96,2.9.5,5.778-.194,8.565a15.245,15.245,0,0,0,.465,9.485c.432,1.1.656,2.289,1.047,3.694C685.981-1576.783,679.755-1576.8,673.532-1576.77Zm54.349-135.021c-.037.827-.064,1.5-.107,2.459C726.5-1710.363,726.458-1711.035,727.88-1711.791Zm-19.82-28.389a4.618,4.618,0,0,1,1.041-4.6c2.422,4.958,4.627,9.479,7.146,14.631-2.322-.8-4.212-.167-5.728-2a8.523,8.523,0,0,1-2-5.44A10.739,10.739,0,0,0,708.06-1740.18Zm27.385,125.633c-.231,2.867-.646,5.725-.709,8.592-.127,5.664-.114,11.332-.053,17,.02,1.693-.338,2.974-2.5,3.379.686,1.392.94,2.824,1.787,3.45,2.034,1.5,1.5,3.175,1.017,5.213h-5.413a25.86,25.86,0,0,0-.974-2.6c-.783-1.6-1.971-2.707-3.914-2.57-2.379.171-4.239-.933-6.116-2.232-2.466-1.7-5.045-3.239-7.638-4.738-1.516-.876-2.228-1.81-1.847-3.747a45.943,45.943,0,0,0,.211-15.926,41.953,41.953,0,0,1-.044-9c.482-7.217,1.154-14.42,1.7-21.63a24.719,24.719,0,0,0,.124-5.661c-1.151-7.217.127-14.283,1.713-21.175,3.493-15.173,3.282-30.47,2.63-45.833a4.785,4.785,0,0,1,.127-.907c1.462,1.563,2.687,2.948,3.992,4.246,1.362,1.352,1.392,1.857-.043,3.172-.315.291-.663.545-.954.783.067.334.037.649.167.746,2.329,1.773,2.944,4.484,3.58,7.05a93.933,93.933,0,0,1,2.078,11.131,9.591,9.591,0,0,0,2.6,5.956c2.754,2.791,2.917,6.631,4.018,10.091a.535.535,0,0,1,0,.331c-1.82,4.35.134,8.783-.291,13.179-.432,4.423-.485,8.883-.766,13.323-.141,2.218-.512,4.423-.606,6.645-.11,2.5.131,2.894,2.666,3.292a2.566,2.566,0,0,1,2.439,2.606c.448,3.416,1.047,6.819,1.338,10.245A34.337,34.337,0,0,1,735.445-1614.547Z" transform="translate(-200.28 1872.683)"/>
      <path id="Path_789" data-name="Path 789" d="M284.718-1294.8q-.14-.793-.281-1.586l1.182-.056v1.6Z" transform="translate(-256.28 1489.237)" fill="#fff"/>
      <ellipse id="Ellipse_93" data-name="Ellipse 93" cx="1.341" cy="0.039" rx="1.341" ry="0.039" transform="translate(316.628 295.567)" fill="#fff"/>
    </g>
    <text id="The_Great_Migration" data-name="The 
Great 
Migration" transform="translate(278 137.582)" fill="#fff" font-size="60" font-family="SegoeUI-Bold, Segoe UI" font-weight="700"><tspan x="0" y="65">The </tspan><tspan x="0" y="146">Great </tspan><tspan x="0" y="227">Migration</tspan></text>
  </g>
</svg>
